<mxfile host="app.diagrams.net" agent="Mozilla/5.0 (Windows NT 10.0; Win64; x64) AppleWebKit/537.36 (KHTML, like Gecko) Chrome/128.0.0.0 Safari/537.36" version="24.7.8">
  <diagram name="Page-1" id="RdtOWf7aQhHNt8c42WqN">
    <mxGraphModel dx="1050" dy="522" grid="1" gridSize="10" guides="1" tooltips="1" connect="1" arrows="1" fold="1" page="1" pageScale="1" pageWidth="827" pageHeight="1169" math="0" shadow="0">
      <root>
        <mxCell id="0" />
        <mxCell id="1" parent="0" />
        <mxCell id="bbMWVLLOVk5g5JQ8IUP6-1" value="Profile Module" style="swimlane;whiteSpace=wrap;html=1;startSize=40;" parent="1" vertex="1">
          <mxGeometry x="180" y="206" width="480" height="690" as="geometry" />
        </mxCell>
        <mxCell id="1VoG_6rcOJJhZWkqKbYC-1" value="Account Settings" style="ellipse;whiteSpace=wrap;html=1;" parent="bbMWVLLOVk5g5JQ8IUP6-1" vertex="1">
          <mxGeometry x="40" y="124" width="160" height="50" as="geometry" />
        </mxCell>
        <mxCell id="1VoG_6rcOJJhZWkqKbYC-5" value="Security" style="ellipse;whiteSpace=wrap;html=1;" parent="bbMWVLLOVk5g5JQ8IUP6-1" vertex="1">
          <mxGeometry x="40" y="284" width="160" height="50" as="geometry" />
        </mxCell>
        <mxCell id="1VoG_6rcOJJhZWkqKbYC-6" value="Theme" style="ellipse;whiteSpace=wrap;html=1;" parent="bbMWVLLOVk5g5JQ8IUP6-1" vertex="1">
          <mxGeometry x="40" y="459" width="160" height="50" as="geometry" />
        </mxCell>
        <mxCell id="1VoG_6rcOJJhZWkqKbYC-7" value="Sign Out" style="ellipse;whiteSpace=wrap;html=1;" parent="bbMWVLLOVk5g5JQ8IUP6-1" vertex="1">
          <mxGeometry x="40" y="574" width="160" height="50" as="geometry" />
        </mxCell>
        <mxCell id="1VoG_6rcOJJhZWkqKbYC-8" value="Delete Account" style="ellipse;whiteSpace=wrap;html=1;" parent="bbMWVLLOVk5g5JQ8IUP6-1" vertex="1">
          <mxGeometry x="260" y="334" width="160" height="50" as="geometry" />
        </mxCell>
        <mxCell id="1VoG_6rcOJJhZWkqKbYC-9" value="Update Profile" style="ellipse;whiteSpace=wrap;html=1;" parent="bbMWVLLOVk5g5JQ8IUP6-1" vertex="1">
          <mxGeometry x="260" y="59" width="160" height="50" as="geometry" />
        </mxCell>
        <mxCell id="1VoG_6rcOJJhZWkqKbYC-17" value="Connected Accounts" style="ellipse;whiteSpace=wrap;html=1;" parent="bbMWVLLOVk5g5JQ8IUP6-1" vertex="1">
          <mxGeometry x="300" y="144" width="160" height="50" as="geometry" />
        </mxCell>
        <mxCell id="1VoG_6rcOJJhZWkqKbYC-18" value="Active Device Management" style="ellipse;whiteSpace=wrap;html=1;" parent="bbMWVLLOVk5g5JQ8IUP6-1" vertex="1">
          <mxGeometry x="260" y="234" width="160" height="50" as="geometry" />
        </mxCell>
        <mxCell id="1VoG_6rcOJJhZWkqKbYC-19" value="Dark" style="ellipse;whiteSpace=wrap;html=1;" parent="bbMWVLLOVk5g5JQ8IUP6-1" vertex="1">
          <mxGeometry x="270" y="404" width="160" height="50" as="geometry" />
        </mxCell>
        <mxCell id="1VoG_6rcOJJhZWkqKbYC-20" value="Light" style="ellipse;whiteSpace=wrap;html=1;" parent="bbMWVLLOVk5g5JQ8IUP6-1" vertex="1">
          <mxGeometry x="270" y="509" width="160" height="50" as="geometry" />
        </mxCell>
        <mxCell id="1VoG_6rcOJJhZWkqKbYC-25" value="" style="endArrow=classic;html=1;rounded=0;exitX=0;exitY=0.5;exitDx=0;exitDy=0;entryX=1;entryY=0;entryDx=0;entryDy=0;dashed=1;" parent="bbMWVLLOVk5g5JQ8IUP6-1" source="1VoG_6rcOJJhZWkqKbYC-9" target="1VoG_6rcOJJhZWkqKbYC-1" edge="1">
          <mxGeometry width="50" height="50" relative="1" as="geometry">
            <mxPoint x="210" y="244" as="sourcePoint" />
            <mxPoint x="260" y="194" as="targetPoint" />
          </mxGeometry>
        </mxCell>
        <mxCell id="1VoG_6rcOJJhZWkqKbYC-45" value="&amp;lt;&amp;lt;ENTEND&amp;gt;&amp;gt;" style="edgeLabel;html=1;align=center;verticalAlign=middle;resizable=0;points=[];" parent="1VoG_6rcOJJhZWkqKbYC-25" vertex="1" connectable="0">
          <mxGeometry x="-0.1335" y="-2" relative="1" as="geometry">
            <mxPoint x="1" as="offset" />
          </mxGeometry>
        </mxCell>
        <mxCell id="1VoG_6rcOJJhZWkqKbYC-26" value="" style="endArrow=classic;html=1;rounded=0;exitX=0;exitY=0.5;exitDx=0;exitDy=0;entryX=1;entryY=1;entryDx=0;entryDy=0;dashed=1;" parent="bbMWVLLOVk5g5JQ8IUP6-1" source="1VoG_6rcOJJhZWkqKbYC-17" target="1VoG_6rcOJJhZWkqKbYC-1" edge="1">
          <mxGeometry width="50" height="50" relative="1" as="geometry">
            <mxPoint x="210" y="244" as="sourcePoint" />
            <mxPoint x="260" y="194" as="targetPoint" />
          </mxGeometry>
        </mxCell>
        <mxCell id="1VoG_6rcOJJhZWkqKbYC-46" value="&amp;lt;&amp;lt;EXTEND&amp;gt;&amp;gt;" style="edgeLabel;html=1;align=center;verticalAlign=middle;resizable=0;points=[];" parent="1VoG_6rcOJJhZWkqKbYC-26" vertex="1" connectable="0">
          <mxGeometry x="-0.0658" y="1" relative="1" as="geometry">
            <mxPoint as="offset" />
          </mxGeometry>
        </mxCell>
        <mxCell id="1VoG_6rcOJJhZWkqKbYC-27" value="" style="endArrow=classic;html=1;rounded=0;exitX=0;exitY=0.5;exitDx=0;exitDy=0;entryX=1;entryY=0;entryDx=0;entryDy=0;dashed=1;" parent="bbMWVLLOVk5g5JQ8IUP6-1" source="1VoG_6rcOJJhZWkqKbYC-18" target="1VoG_6rcOJJhZWkqKbYC-5" edge="1">
          <mxGeometry width="50" height="50" relative="1" as="geometry">
            <mxPoint x="210" y="374" as="sourcePoint" />
            <mxPoint x="260" y="324" as="targetPoint" />
          </mxGeometry>
        </mxCell>
        <mxCell id="1VoG_6rcOJJhZWkqKbYC-47" value="&amp;lt;&amp;lt;ENTEND&amp;gt;&amp;gt;" style="edgeLabel;html=1;align=center;verticalAlign=middle;resizable=0;points=[];" parent="1VoG_6rcOJJhZWkqKbYC-27" vertex="1" connectable="0">
          <mxGeometry x="-0.103" y="-2" relative="1" as="geometry">
            <mxPoint as="offset" />
          </mxGeometry>
        </mxCell>
        <mxCell id="1VoG_6rcOJJhZWkqKbYC-42" value="" style="endArrow=classic;html=1;rounded=0;exitX=0;exitY=0.5;exitDx=0;exitDy=0;dashed=1;" parent="bbMWVLLOVk5g5JQ8IUP6-1" target="1VoG_6rcOJJhZWkqKbYC-5" edge="1">
          <mxGeometry width="50" height="50" relative="1" as="geometry">
            <mxPoint x="260" y="357" as="sourcePoint" />
            <mxPoint x="194" y="401" as="targetPoint" />
          </mxGeometry>
        </mxCell>
        <mxCell id="1VoG_6rcOJJhZWkqKbYC-48" value="&amp;lt;&amp;lt;EXTEND&amp;gt;&amp;gt;" style="edgeLabel;html=1;align=center;verticalAlign=middle;resizable=0;points=[];" parent="1VoG_6rcOJJhZWkqKbYC-42" vertex="1" connectable="0">
          <mxGeometry x="-0.0339" y="-2" relative="1" as="geometry">
            <mxPoint as="offset" />
          </mxGeometry>
        </mxCell>
        <mxCell id="1VoG_6rcOJJhZWkqKbYC-43" value="" style="endArrow=classic;html=1;rounded=0;exitX=0;exitY=0.5;exitDx=0;exitDy=0;entryX=0.931;entryY=0.22;entryDx=0;entryDy=0;entryPerimeter=0;dashed=1;" parent="bbMWVLLOVk5g5JQ8IUP6-1" source="1VoG_6rcOJJhZWkqKbYC-19" target="1VoG_6rcOJJhZWkqKbYC-6" edge="1">
          <mxGeometry width="50" height="50" relative="1" as="geometry">
            <mxPoint x="210" y="514" as="sourcePoint" />
            <mxPoint x="260" y="464" as="targetPoint" />
          </mxGeometry>
        </mxCell>
        <mxCell id="1VoG_6rcOJJhZWkqKbYC-49" value="&amp;lt;&amp;lt;ENTEND&amp;gt;&amp;gt;" style="edgeLabel;html=1;align=center;verticalAlign=middle;resizable=0;points=[];" parent="1VoG_6rcOJJhZWkqKbYC-43" vertex="1" connectable="0">
          <mxGeometry x="-0.0102" y="1" relative="1" as="geometry">
            <mxPoint as="offset" />
          </mxGeometry>
        </mxCell>
        <mxCell id="1VoG_6rcOJJhZWkqKbYC-44" value="" style="endArrow=classic;html=1;rounded=0;exitX=0;exitY=0.5;exitDx=0;exitDy=0;entryX=0.95;entryY=0.72;entryDx=0;entryDy=0;entryPerimeter=0;dashed=1;" parent="bbMWVLLOVk5g5JQ8IUP6-1" source="1VoG_6rcOJJhZWkqKbYC-20" target="1VoG_6rcOJJhZWkqKbYC-6" edge="1">
          <mxGeometry width="50" height="50" relative="1" as="geometry">
            <mxPoint x="210" y="514" as="sourcePoint" />
            <mxPoint x="260" y="464" as="targetPoint" />
          </mxGeometry>
        </mxCell>
        <mxCell id="1VoG_6rcOJJhZWkqKbYC-50" value="&amp;lt;&amp;lt;EXTEND&amp;gt;&amp;gt;" style="edgeLabel;html=1;align=center;verticalAlign=middle;resizable=0;points=[];" parent="1VoG_6rcOJJhZWkqKbYC-44" vertex="1" connectable="0">
          <mxGeometry x="0.008" relative="1" as="geometry">
            <mxPoint as="offset" />
          </mxGeometry>
        </mxCell>
        <mxCell id="bbMWVLLOVk5g5JQ8IUP6-14" value="User" style="shape=umlActor;verticalLabelPosition=bottom;verticalAlign=top;html=1;outlineConnect=0;" parent="1" vertex="1">
          <mxGeometry x="64" y="521" width="30" height="60" as="geometry" />
        </mxCell>
        <mxCell id="1VoG_6rcOJJhZWkqKbYC-21" value="" style="endArrow=none;html=1;rounded=0;entryX=0;entryY=0.5;entryDx=0;entryDy=0;" parent="1" target="1VoG_6rcOJJhZWkqKbYC-1" edge="1">
          <mxGeometry width="50" height="50" relative="1" as="geometry">
            <mxPoint x="110" y="540" as="sourcePoint" />
            <mxPoint x="440" y="530" as="targetPoint" />
          </mxGeometry>
        </mxCell>
        <mxCell id="1VoG_6rcOJJhZWkqKbYC-22" value="" style="endArrow=none;html=1;rounded=0;entryX=0;entryY=0.5;entryDx=0;entryDy=0;" parent="1" target="1VoG_6rcOJJhZWkqKbYC-5" edge="1">
          <mxGeometry width="50" height="50" relative="1" as="geometry">
            <mxPoint x="110" y="550" as="sourcePoint" />
            <mxPoint x="440" y="530" as="targetPoint" />
          </mxGeometry>
        </mxCell>
        <mxCell id="1VoG_6rcOJJhZWkqKbYC-23" value="" style="endArrow=none;html=1;rounded=0;entryX=0;entryY=0.5;entryDx=0;entryDy=0;" parent="1" target="1VoG_6rcOJJhZWkqKbYC-6" edge="1">
          <mxGeometry width="50" height="50" relative="1" as="geometry">
            <mxPoint x="110" y="560" as="sourcePoint" />
            <mxPoint x="440" y="530" as="targetPoint" />
          </mxGeometry>
        </mxCell>
        <mxCell id="1VoG_6rcOJJhZWkqKbYC-24" value="" style="endArrow=none;html=1;rounded=0;entryX=0;entryY=0.5;entryDx=0;entryDy=0;" parent="1" target="1VoG_6rcOJJhZWkqKbYC-7" edge="1">
          <mxGeometry width="50" height="50" relative="1" as="geometry">
            <mxPoint x="110" y="570" as="sourcePoint" />
            <mxPoint x="440" y="530" as="targetPoint" />
          </mxGeometry>
        </mxCell>
      </root>
    </mxGraphModel>
  </diagram>
</mxfile>
